<?xml version="1.0" encoding="UTF-8"?>
<svg id="Layer_1" data-name="Layer 1" xmlns="http://www.w3.org/2000/svg" viewBox="0 0 100 100">
  <defs>
    <style>
      .cls-1 {
        fill: #ccc;
      }

      .cls-1, .cls-2, .cls-3 {
        stroke-width: 0px;
      }

      .cls-2 {
        fill: #fff;
      }

      .cls-3 {
        fill: #e6e6e6;
      }
    </style>
  </defs>
  <rect class="cls-2" width="100" height="100"/>
  <g>
    <rect class="cls-1" width="100" height="100"/>
    <path class="cls-3" d="m100,1.47c-2.89,1.07-4.8,1.68-6.54,2.12-.47-1.27-.9-2.48-1.25-3.59h-.73c.37,1.14.81,2.42,1.29,3.76-.37.09-.73.17-1.1.25-1.47.32-2.65.49-3.7.64-1.97.28-3.34.48-4.55,1.45-.13-2.01-.26-4.13-.39-6.1h-.76c.25,3.8.53,8.12.71,11.2-4.63-.01-2.7-.01-8.51-.04.71-4.15.9-7.85.93-11.16h-.76c-.01,1.71-.06,3.52-.24,5.63-1.92.11-3.75.21-5.61.21-1.1,0-2.1-.04-3.07-.11.04-1.96.03-3.86.01-5.73h-3.99c.01,1.01.02,2.03.02,3.07-1.31,1.84-3.37,4.66-5.4,6.95-.61-.77-1.33-1.8-2.23-3.25.27-.37.55-.73.85-1.06.74-1.09,1.49-2.17,2.23-3.25.57-.81,1.14-1.63,1.71-2.46h-.91c-.47.69-.94,1.37-1.41,2.04-.75,1.07-1.5,2.16-2.21,3.21-.24.26-.46.56-.68.85-.76-1.24-1.64-2.74-2.68-4.62-.28-.51-.56-1-.83-1.48h-4.63c.67,1.1,1.36,2.35,1.96,3.43.48.85.99,1.76,1.51,2.68-1.42,1.22-2.82,2.21-4.15,3.04-2.21-3.63-3.8-6.9-4.47-9.15h-.76c.64,2.31,2.29,5.72,4.61,9.54-2.39,1.43-4.38,2.31-5.73,3.09-.3-.44-.44-.65-.51-.76-.39-4.51-2.03-8.57-4.07-11.87h-.92c.06.09.11.19.16.28-4.29,6.68-1.84,4.07-5.95,9.68-2.09-3.67-4.38-7.8-4.73-8.59-.06-.14-.17-.6-.28-1.08-.02-.1-.05-.2-.07-.29h-.77c.04.18.08.33.11.46.14.57.24.98.31,1.19.31.69,2.75,5.12,4.95,8.97-1.78,2.4-4.14,5.53-5.53,7.69-1.18-7.31-1.48-10.46-1.6-11.32-.43-2.44-1.03-4.74-1.64-6.99h-4.14c.47,1.78.96,3.55,1.36,5.34-.53-.02-1.05-.05-1.58-.07-2.1-.11-5.15-.23-7.39-.15V0h-.75v10.91c-1.78-1.09-3.61-2.19-5.5-3.28v4.64c3.27,1.93,6.35,3.87,9.26,5.83-.03,1.85-.07,3.7-.1,5.56-3.45-.77-6.9-1.67-9.16-2.53v.8c2.35.87,5.77,1.74,9.14,2.49-.02,1.5-.05,3-.08,4.5-.02,1.06-.04,2.14-.06,3.2H0v.76h8.99c-.03,1.53-.06,3.06-.09,4.61-3.01-.29-5.93-.88-8.9-1.07v.74c2.94.2,5.86.8,8.88,1.08-.04,2.1-.08,4.2-.13,6.3-2.92-.02-5.87-.07-8.75.39v.76c2.14-.35,4.32-.41,6.39-.41.51,0,1.84.01,2.35.01-.06,2.48-.12,4.95-.18,7.41-1.04.12-2.66.23-3.84.23-.69,0-1.38-.01-2.07-.03-.68-.01-1.36-.02-2.03-.02-.2,0-.4.01-.62.03v.74c.22-.02.43-.03.62-.03.66,0,1.34.02,2.02.03.69.02,1.39.03,2.08.03,1.22,0,2.79-.11,3.85-.22.26,2.27.74,4.3,1.36,6.11-3.3,2.13-6.63,4.56-9.93,7.41v5.41c.82-.78,1.64-1.52,2.47-2.24.25.41.45.75.5.84l.08.13.15.04s.04.01.06.01c.01.07.04.16.11.22.76,1,2.28,2.15,4.17,3.37-.01,2.13-.03,4.02-.05,5.71-2.9-1.91-5.58-3.74-7.49-5.08v.89c1.99,1.4,4.65,3.2,7.48,5.06-.03,2.06-.07,3.77-.1,5.17-.16-.04-.32-.08-.42-.12-.1-.03-.16-.05-.23-.05-.43,0-1.8-.39-3.11-.77-1.35-.39-2.73-.78-3.62-.92v.76c.72.12,1.81.42,2.87.73,0,1.4-.01,2.79-.01,4.19,0,1.35-.02,2.7-.02,4.05-.18.02-.35.04-.53.06-.72.09-1.5.18-2.31.27v.76c.84-.09,1.65-.19,2.4-.28.15-.02.29-.04.44-.05,0,2.19.03,3.72.08,4.86h.75c-.05-1.14-.08-2.69-.08-4.95,1.01-.12,1.86-.21,2.43-.21.26,0,.53.01.79.02.13,0,.26,0,.38.01-.06,1.23-.19,3.15-.39,5.13h.76c.28-2.77.46-5.75.4-7.51,0-.27-.01-.53-.01-.79,1.02.06,4.09,1.36,4.84,1.86l.04-.06c-.1,2.05-.15,4.21-.15,6.5h.75c0-3.72.14-7.09.39-10.17.26.27.53.58.79.8,1.05.82,2.3,1.88,3.51,2.96-.24,2.02-.45,4.32-.5,6.41h.75c.05-1.9.23-3.95.44-5.81,1.37,1.23,2.62,2.39,3.4,3.13,0,.92-.01,1.82-.01,2.68h4c.01-1.49.01-3.07.01-4.76v-2.2c1.34-.01,2.74-.02,4.18-.04.12,2.45.09,4.84.08,7h.75c0-2.34.04-4.63-.08-7.01,1.33-.02,2.69-.05,4.09-.08-.1,2.45.08,4.69.4,7.09h.77c-.27-1.95-.46-3.92-.46-5.9,0-.4.02-.8.04-1.21,2.73-.07,5.56-.16,8.43-.29.21,2.48.12,4.93.08,7.4h.75c.04-2.46.13-4.94-.08-7.44,1.12-.05,2.23-.11,3.35-.17.69,2.82,1.26,5.4,1.71,7.61h.74c-.46-2.22-1.03-4.82-1.72-7.66,2.6-.15,5.21-.34,7.78-.56.11,2.31.77,5.54,1.4,8.22h.77c-.64-2.71-1.32-5.99-1.42-8.29,1.84-.17,3.66-.35,5.44-.56,1.02,3.02,2.01,5.98,3.02,8.85h4.24c-1.9-5.31-3.69-10.94-5.77-16.81,0,0,.02-.01.03-.02l.17-.12c1.17-.87,2.52-1.91,3.91-3.02,1.02,2.98,4.63,13.11,5.52,15.33-.75,1.53-1.43,3.08-2.01,4.64h.8c.6-1.53,1.27-3.06,2.02-4.57h.03s-.01-.03-.01-.04c1.21-2.44,2.59-4.83,4.13-7.13,1.75,4.02,3.55,7.99,5.33,11.74h.82c-1.88-3.97-3.8-8.2-5.65-12.47,1.81-2.64,3.8-5.16,5.95-7.47,2.54,3.44,9.99,14.61,13.3,19.94h.88c-1.33-2.16-3.42-5.39-5.6-8.68,1.04-3.08,2.17-5.71,3.33-7.95.86.71,1.64,1.4,2.35,2.07v-1.03c-.61-.55-1.28-1.13-1.99-1.72.66-1.23,1.33-2.35,1.99-3.35v-1.35c-.84,1.22-1.72,2.62-2.58,4.22-2.23-1.81-4.92-3.73-8.09-5.69,1.44-1.3,2.92-2.51,4.44-3.61.08,0,.16-.05.25-.12,1.77,1.2,3.26,2.13,4.54,2.93.53.32,1,.62,1.44.9v-.89c-.32-.2-.67-.42-1.04-.65-1.31-.82-2.86-1.78-4.69-3.03-.02,0-.02-.03-.03-.05-.06-.05-.12-.07-.18-.09-1.12-.76-2.35-1.64-3.71-2.65.69-3.29,1.15-2.86,4.27-7.04,1.61.87,3.38,1.86,5.38,2.98v-.85c-1.81-1.02-3.44-1.93-4.93-2.74.94-1.29.7-.95,2.36-3.63.78.4,1.55.8,2.27,1.17l.3.15v-.84c-.7-.35-1.42-.74-2.18-1.12.67-1.07,1.42-2.3,2.18-3.53v-1.43c-.07.11-.14.23-.21.34-1.14,1.85-1.99,3.23-2.63,4.27-2.22-1.14-4.69-2.45-7.48-4,1.97-3.95,3.41-6.18,4.38-7.67,1.86.51,3.8,1.13,5.94,2.05v-4.33c-1.52-.59-2.94-1.04-4.3-1.42,0-.04,0-.08,0-.12h-.45c-2.71-.74-5.19-1.26-7.75-2.16-.53-1.87-1.21-4.38-1.84-6.91.66-.1,1.32-.2,1.98-.31,1.86-.36,4.1-.93,6.56-1.61,1.74,4.19,4.07,7.48,5.79,9.56v-1.18c-1.59-2.03-3.56-4.96-5.08-8.58,1.64-.45,3.34-.95,5.08-1.46v-.79c-1.83.54-3.64,1.07-5.36,1.55-.7-1.79-1.28-3.74-1.65-5.82,3.28-.01,5.46-.03,7.01-.03v-.74h-1.46c-1.66,0-2.04,0-5.67.02-.5-3.4-.33-8.39,0-9.58.56,0,.71.04.85.09.24.07.46.12,1.13.12.58,0,1.39.17,2.2.38,1.02,2.1,2.03,3.95,2.95,5.26v-1.35c-.61-1.01-1.27-2.27-1.96-3.66.78.19,1.47.37,1.96.4v-.75c-.47-.04-1.2-.24-1.97-.43-.14-.04-.28-.07-.42-.11-1.34-2.81-2.73-6.09-3.88-9.12,1.68-.43,3.54-1.01,6.27-2.03v-.79ZM7.21,92.51c.02.38.03.76.03,1.15,0,.1-.01.26-.01.46-.14-.01-.26-.01-.4-.01-.27-.01-.54-.02-.81-.02-.59,0-1.44.09-2.43.2,0-1.32.01-2.64.02-3.95,0-1.33.01-2.66.01-3.99,1.4.4,2.6.74,3.09.75.15.05.39.14.64.17-.08,2.75-.16,4.03-.16,4.07,0,.39.01.78.02,1.17Zm.33-18.65c-1.59-1.04-2.86-2.03-3.54-2.87-.03-.3-.24-.44-.46-.52-.15-.24-.32-.53-.49-.82,1.42-1.2,2.84-2.33,4.26-3.39.03,2.24.09,3.08.15,3.79.04.62.08,1.1.08,2.34v1.47ZM92.13,23.04c-2.8,0-5.45-.03-8.32-.22-.01-.08-.01-.17-.01-.25,0-1.19.04-2.38.07-3.57.04-1.23.08-2.46.08-3.7,0-.22-.07-1.5-.18-3.35,1.06.01.69-.08,4.21.64,1.58.33,3.2.66,4.16.8-.32,1.28-.55,5.92-.01,9.65Zm-7.39,8.77c-2.89.42-5.32.72-7.83,1.24-2.06-1.74-4.31-3.91-6.84-6.69.38-1.22.79-2.4,1.21-3.6,5.45.04,7.77.48,11.82.77.19,1.96.87,5.11,1.64,8.28Zm2.05,34.69c-4.41-3.54-9.93-8.39-16.94-15.29.72-.52,1.5-1.16,2.32-1.87,1.34,1.69,6.87,6,10.9,7.61,1.23.32,2.57.81,4.12,1.5-.44,2.76-.41,5.5-.4,8.05ZM31.51,17.43c.57-1.69,1.23-3.63,1.99-5.85,1.34,1.86,5.29,9.22,5.46,10.29-1.54,2.47-2.07,3.19-3.72,7.38-1.65-2.66-4.65-7.19-5.1-7.8.38-1.13.82-2.43,1.33-3.92h.07s-.03-.07-.03-.1Zm37.65,13.8c-.8,2.34-1.89,5.47-2.61,8.13l-.13.2s.04.03.06.05c-.41,1.56-.69,2.94-.69,3.87,0,.02-.03.07-.04.1-.05.11-.13.25-.13.42,0,.87-.32,1.5-.39,2.57-1.77-1.8-3.63-3.73-5.57-5.78.01-.26.05-.32.07-.35.15-.17.23-.35.23-.77,0-.77.99-2.61,1.46-3.5.23-.43.34-.63.38-.76.34-.48,2.85-4.09,4.68-7.05.93,1.03,1.82,1.98,2.68,2.87Zm-2.24-8.46c1.77,0,2.71-.02,3.57-.01-.35,1-.7,1.98-1.01,2.95-.82-.91-1.68-1.89-2.56-2.94ZM30.88,61.26c2.1-.85,4.16-1.7,6.14-2.57,1.21,2.46,2.35,5.05,3.41,7.7-2.08,1.56-5.28,3.88-8.29,6.01-.08-.05-.15-.08-.2-.1-.47-.28-.49-.16-.73-.58-.02-.05-.06-.1-.08-.1l.03-.06c-.5-.64-.25-7.52-.28-10.3Zm6.82-2.88c3.05-1.38,5.88-2.86,8.34-4.6.58.88,1.14,1.75,1.69,2.62-.31.51-.62,1.01-.97,1.48-2.06,1.72-2.77,4.47-4.06,6.73-.13.14-.74.63-1.66,1.32-1.04-2.6-2.15-5.14-3.34-7.55Zm7.67-12.53c1.76-1.05,3.43-2.17,5.01-3.39.65.93,1.38,1.79,2.09,2.62,1.53,1.81,1.04,1.24,3.35,4.35l-1.34,1.05c-1.81,1.42-2.95,2.31-3.78,3.04-1.63-2.55-3.38-5.1-5.33-7.67Zm-2.05,19.17c1.38-2.37,1.98-4.94,3.98-6.63.32-.43.61-.86.88-1.28,1.62,2.62,3.09,5.24,4.43,7.83-.04.03-.07.05-.11.08-.12.08-.23.17-.36.24-.36.06-1.01.38-2.53,1.16-2.19,1.13-5.44,2.79-7.25,2.93-.33-.9-.67-1.81-1.03-2.7,1.15-.87,1.91-1.48,1.99-1.63Zm7.78-10.86c1-.88,2.58-2.1,5.17-4.12,1.37,1.84,2.54,3.37,3.51,4.63-2.15,2.09-3.58,4.82-4.35,6.96-1.31-2.47-2.75-4.97-4.33-7.47Zm4.22-6.67c1.25,0,2.02.27,7.01-2.83,2.24,2.32,4.36,4.47,6.36,6.44-1.34.89-1.93.84-4.45,3.54-.83.89-1.5,1.6-2.21,1.7-1.52-1.93-3.65-4.69-6.71-8.85Zm9.47,7.66c2.51-2.68,2.91-2.47,4.44-3.51,1.85,1.82,3.58,3.49,5.23,5.04l-.19-.06c-.72,2.15-3.24,4.41-7.52,6.76-.98-2.3-1.81-3.36-4.21-6.39.78-.27,1.45-.98,2.25-1.84Zm1.29-7.71c-.09-.28-.11-.22-.11-.46,0-1.39.41-1.74.4-2.96,0-.02.03-.07.05-.1.05-.11.12-.25.12-.42,0-.82.24-2.05.61-3.46,2.95,1.97,5.7,3.74,8.24,5.34-2.1,2.01-4.33,4.03-6.08,5.29-1.04-1.03-2.12-2.11-3.23-3.23Zm-4.28-3.33c-4.89,3.03-5.44,2.63-7.03,2.63-1.23-1.67-2.62-3.04-3.79-4.74,1.67-1.33,3.22-2.78,4.66-4.4,2.15,2.31,4.2,4.47,6.16,6.51Zm-8.45-10.09c-2.48-2.7-1.43-1.32-5.64-7.62.56-1.11,2.4-3.79,4.07-6.32,1.91,2.3,3.94,4.53,6.04,6.52-1.23,2.85-2.73,5.29-4.47,7.42Zm-.49.57c-2.45,2.85-5.32,5.16-8.56,7.2.23-6.22,1.41-15.53,1.41-15.53,0-.37.03-.99.03-1.48,5.8,8.7,4.38,6.83,7.12,9.81Zm-8.74-.78c-1.45-.68-1.86-2.46-6.46-8.27.06-.14.12-.27.17-.35,1.52-2.66,3.22-4.96,3.76-6.63,1.05,1.58,2.2,3.31,3.32,4.98.31,2.03-.2,4.2-.79,10.27Zm-.07.78c-.24,2.5-.44,5.21-.52,7.67-.22.14-.44.27-.67.41-2.48-3.04-5.24-6.1-8.29-9.14.31-1.11.72-2.32,1.16-3.47h0c.56-1.46,1.14-2.82,1.57-3.76,4.64,5.89,4.85,7.55,6.75,8.29Zm-9.15-4.46c-.34.93-.67,1.88-.93,2.79-1.85-1.83-3.8-3.66-5.88-5.48.33-.95.86-2.53,1.75-5.11.98,1.44,3.71,5.58,5.06,7.8Zm4.35,14.52c-.81.42-1.64.83-2.48,1.24-.99-1.22-3.09-3.21-7.04-4.83,1.8-2.94,2.36-3.86,2.53-4.14,2.54,2.58,4.87,5.16,6.99,7.73Zm2.55,3.19c1.36,1.78,2.61,3.55,3.81,5.32-2.41,1.71-5.22,3.18-8.25,4.55-.17-.35-.35-.71-.53-1.05-.37-.71-.83-1.4-1.28-2.08-.63-.93-1.26-1.89-1.65-2.9,2.73-1.26,5.37-2.51,7.9-3.84Zm-6.87,7.16c.43.66.89,1.33,1.24,2.01.17.33.34.67.51,1.01-2,.88-4.09,1.74-6.23,2.61h-.33s.01.09.01.13c-1.23.5-2.48,1.01-3.73,1.53,0-2.81-.05-5.22-.13-7.08,2.38-1.13,4.69-2.18,6.95-3.22.41,1.07,1.06,2.05,1.71,3.01Zm-8.62,22.32c.8-.53,1.81-1.21,2.95-1.99.01,1.26.08,2.83.17,4.5-1.14.39-2.18.66-2.98.87-.06,0-.11.03-.17.04.01-1.16.02-2.3.03-3.42Zm-.03,4.2c.12-.03.23-.06.36-.1.77-.19,1.75-.44,2.83-.8.08,1.47.18,2.98.29,4.4-1.82-.01-2.78-.02-3.51-.05.01-1.16.02-2.31.03-3.45Zm.04-5.09c.05-4.93.08-9.48.08-13.33,1.26-.52,2.5-1.03,3.73-1.53.06,8.87-.44,10.37,1.32,11.32-1.95,1.38-3.78,2.64-5.13,3.54Zm9.33-5.61c.4,1.57.78,3.05,1.14,4.45-.09.06-.23.16-.31.22-1.92,2.06-4.24,3.29-6.32,4.08-.09-1.81-.16-3.49-.16-4.76,1.77-1.23,3.76-2.63,5.65-3.99Zm.65-.47c1.66-1.19,3.2-2.32,4.42-3.23.61,1.55,1.19,3.12,1.75,4.69-1.33.01-1.95.54-2.98,1.41-.52.45-1.15.98-2.04,1.61-.36-1.41-.74-2.9-1.15-4.48Zm3.68,3.44c.99-.84,1.44-1.23,2.52-1.23.09,0,.17.02.25.03,1.47,4.23,2.77,8.48,3.87,12.49-1-.13-3.43-.09-6.64-.08-.57-2.32-1.35-5.5-2.34-9.4,1.05-.72,1.79-1.34,2.34-1.81Zm4.72,2.32c1.79-.04,3.42-.24,4.84-.53.19,1.91.41,3.56.73,5.16-1.22.15-2.58.24-4.06.25-.47-1.61-.98-3.24-1.51-4.88Zm-.24-.75c-.58-1.76-1.19-3.53-1.83-5.28,1.98-.25,5.04-1.81,7.32-2.99.97-.5,2.07-1.07,2.3-1.09l.17-.04c.18-.09.35-.21.52-.34h.01c1.19,2.34,2.28,4.66,3.28,6.96-.02,0-.03.01-.05.01-.1.03-.21.07-.27.07h-.1l-.08.05s-4.59,2.54-11.27,2.65Zm11.56-1.96c.14-.01.27-.05.39-.09.04-.01.08-.03.12-.04.71,1.64,1.38,3.27,2.02,4.89-1.1.71-3.57,1.88-7.54,2.47-.32-1.61-.54-3.27-.73-5.2,3.23-.73,5.31-1.79,5.74-2.03Zm2.23-6.13c-.74-1.57-1.5-3.15-2.33-4.74.66-2.05,2.05-5.04,4.33-7.26,3.82,4.92,4.67,5.73,5.83,8.46-2.18,1.16-4.8,2.34-7.83,3.54Zm11.1-4.58c.48.98.91,2.03,1.42,3.42.42,1.33.88,2.7,1.37,4.08-.86,1.62-7.37,3.49-10.7,4.39-.89-2.19-1.84-4.4-2.87-6.63,4.5-1.78,8.1-3.54,10.78-5.26Zm2.13,3.18c-.54-1.47-.99-2.57-1.49-3.6,2.61-1.77,4.24-3.5,4.89-5.19,2.28,2.14,4.37,4.02,6.29,5.69l-.39-.18c-.75,1.63-1.62,3.25-2.13,5.01-.09.16-.44.76-.71,1.22q-.38.64-.38.74c0,.94-1.13,2.53-3.19,4.6-1.07-2.85-2.05-5.64-2.89-8.29Zm6.83,3.8c.09-.16.98-1.65,1.04-1.82h.01c.48-1.67,1.32-3.24,2.06-4.86,1.19,1.04,2.31,1.98,3.38,2.86-1.26,1.97-6.92,9.36-7.93,14.72-.77-1.89-1.51-3.78-2.22-5.64,2.08-2.06,3.58-3.97,3.66-5.26Zm5-13.43c-4.33-1.74-9.72-6.26-10.59-7.37,1.09-.96,2.24-2.02,3.33-3.08,4.88,3.06,9.05,5.5,12.66,7.52-.65,1.46-1.11,2.92-1.39,4.37-1.51-.65-2.81-1.13-4.01-1.44Zm-7.36-11.4c-2.65-1.66-5.5-3.5-8.6-5.56.65-2.32,1.56-4.99,2.26-7.04.05-.15.09-.27.14-.4,4.1,4.17,7.52,6.83,10.58,8.62-1.1,1.14-2.67,2.73-4.38,4.38Zm7.07-32.89c.2,3.45.22,3.2.1,7.02-.03,1.21-.07,2.41-.07,3.6,0,.06,0,.13.01.2-3.96-.29-6.27-.7-11.51-.76,1.01-2.89,2.05-6.04,2.8-10.1,5.49.02,4.02.03,8.67.04Zm-17.31-5.47c.97.07,1.98.11,3.08.11,1.85,0,3.65-.1,5.55-.2-.16,1.73-.37,3.31-.63,4.77-.44,0-.88-.01-1.32-.01h-.81c-2.27,0-4.44,0-6.14.07.14-1.61.22-3.2.27-4.74Zm-.34,5.5c1.95-.08,4.44-.08,6.21-.08h.81c.4,0,.79.01,1.19.01-.76,4.06-1.81,7.2-2.83,10.1-.12,0-.23-.01-.36-.01-1.42,0-2.57.03-4.11.03-.66-.8-1.34-1.62-2.04-2.49.55-2.63.9-5.13,1.13-7.56Zm-2.39,12.34c1.04,1.24,2.02,2.37,2.98,3.45-1.94,3.17-4.77,7.22-4.81,7.26h-.05v.13c-.04.09-.17.33-.34.66-.75,1.4-1.55,2.97-1.55,3.85,0,.35-.02.19-.17.47-.95-1.01-1.92-2.05-2.91-3.11,2.86-3.39,5.2-7.5,6.85-12.71Zm-1.23-19.96c-.04,3.4-.23,6.97-.83,10.95-.54-.7-1.09-1.43-1.65-2.18-.8-.85-1.47-1.37-2.44-2.52,1.79-2,3.6-4.41,4.92-6.25Zm-5.56,11.34c1.29,1.71,2.51,3.3,3.7,4.8-.49,1.94-1.09,3.71-1.76,5.36-2.06-1.98-4.05-4.17-5.92-6.43,1.26-1.91,2.28-3.53,2.93-4.75.35.35.69.7,1.05,1.02Zm-6.77-8.94c1.5,2.56,3.21,5.18,5.18,7.34-.65,1.25-1.75,3-2.88,4.72-2.44-3.01-4.63-6.12-6.44-9.03,1.32-.83,2.72-1.82,4.14-3.03Zm-4.77,3.41c1.87,3,4.13,6.21,6.64,9.3-1.62,2.45-3.29,4.88-4.05,6.22-.57-.86-1.11-1.66-1.61-2.42,0-.03-.01-.06-.01-.09h-.05c-3.75-5.63-5.65-8.48-6.61-9.92,1.33-.77,3.27-1.63,5.69-3.09Zm-7.35,1.96c.08.12,3.62,5.42,3.7,5.55-.04.81-.69,2-1.55,3.4-.98-2.42-4.39-8.93-5.67-10.34.41-1.18.84-2.45,1.3-3.8.1-.06.3-.18.3-.44s.19-.68.42-1.05c.81,2.17,1.31,4.37,1.5,6.68Zm-3.66-11.1c.66,1.12,1.3,2.3,1.83,3.59-.35.43-.76,1.15-.83,1.71-.1.05-.23.16-.26.34-.15.46-1.68,4.93-3.31,9.73-.21-.41-.18-.34-.22-.42-.26-.26-1.63-2.58-3.19-5.3,4.36-5.94,1.81-3.14,5.98-9.65Zm-6.47,10.3c1.43,2.49,2.69,4.61,3.08,5.11.15.39.33.6.47.97-1.26,3.69-2.53,7.41-3.24,9.51-1.78-1.55-3.63-3.08-5.58-4.62-.18-1.03-.33-1.98-.48-2.88,1.3-2.13,3.9-5.58,5.75-8.09Zm-15.02,51.58c1.51-.97,3.01-1.87,4.5-2.73,1.33,1.15,2.21,1.76,3.56,2.93-.86,1.47-1.88,3.45-2.89,6.08-1.81-1.47-3.67-3.5-5.17-6.28Zm4.89,7.03c-.81,2.24-1.61,4.92-2.3,8.12-.48-.27-.96-.53-1.44-.8.03-2.22.76-6.4,1.75-9.15.66.68,1.33,1.29,1.99,1.83Zm.3-10.15c1.68-.94,3.34-1.82,5-2.65.02.76.03,1.66.04,2.68l-.07-.02c-.05.14-.29.51-.58.93-.3.45-.69,1.02-1.12,1.73-1.26-1.08-2.19-1.75-3.27-2.67Zm3.98-15.64c.34,2.8.62,5.65.81,8.62-1.2.59-2.42,1.2-3.64,1.84-.04-.12-4.73-9.35-4.79-9.46,1.81-.15,3.22-.39,4.44-.59,1.11-.18,2.13-.34,3.18-.41Zm-5.98.07c-2.1.27-3.88.33-5.84.33.09-3.91.17-7.81.24-11.67h5.14c.01.4.02.8.02,1.2,0,.73-.02,1.46-.03,2.19-.01.75-.03,1.49-.03,2.23,0,1.7.07,3.7.5,5.72Zm4.32-11.34c.58,3.48,1.12,6.96,1.57,10.53-1.07.07-2.1.23-3.21.41-.61.1-1.25.21-1.93.3-.43-1.98-.5-3.95-.5-5.62,0-.74.02-1.48.03-2.21.01-.74.03-1.47.03-2.21,0-.4,0-.8-.02-1.2h4.03Zm-.13-.76h-9.78c.02-1.06.04-2.13.06-3.19.03-1.45.05-2.89.08-4.34,3.4.74,6.66,1.35,8.64,1.7.34,1.96.68,3.9,1,5.83Zm-1.31-7.59c.06.33.12.65.17.98-2.08-.37-5.24-.98-8.48-1.69l.09-5.22c2.91,1.97,5.65,3.95,8.22,5.93ZM13.6,6.02c.6.03,1.19.05,1.78.08.11.51.22,1.01.31,1.52.23,2,.49,3.93.76,5.8-4.76-1.31-8.94-3.15-10.2-3.73v-3.83c2.21-.07,5.25.04,7.35.16Zm-7.35,5.36v-.86c1.6.71,5.72,2.47,10.32,3.72.22,1.54.45,3.07.69,4.56-3.41-2.49-7.07-4.96-11.01-7.42Zm3.04,41.88c.07-2.64.14-5.3.2-7.96,1.11,0,2.07-.01,3.41-.1.8,1.61,4.23,8.4,4.83,9.5.06.19.09.26.09.26-2.4,1.28-4.83,2.66-7.27,4.2-.57-1.74-1.01-3.7-1.26-5.9Zm2.26,10.04c.87,1.62,1.87,3.01,2.92,4.19-1.02,2.65-1.8,6.89-1.91,9.36-1.49-.83-2.96-1.68-4.27-2.51v-1.95c0-1.27-.04-1.79-.09-2.4-.05-.75-.12-1.66-.15-4.28,1.17-.84,2.33-1.64,3.5-2.41Zm1.32,29.44c-1.11-.61-3.79-1.73-4.91-1.78.05-.99.18-3.89.26-9.13,1.77,1.15,3.58,2.3,5.32,3.39-.29,2.3-.52,4.81-.67,7.52Zm.77-8.31c-1.77-1.11-3.61-2.3-5.4-3.47.02-1.68.04-3.6.05-5.73,1.9,1.18,4.11,2.41,6.29,3.59-.35,1.72-.67,3.59-.94,5.61Zm4.59,8.25c-1.1-.96-2.21-1.9-3.15-2.63-.5-.42-.51-.62-1.18-1.15.1-1.13.21-2.2.34-3.25,1.68,1.04,3.27,1.99,4.68,2.79-.16.63-.43,2.24-.69,4.24Zm3.98,2.56v1.05c-.86-.81-2.04-1.9-3.29-3,.25-2.07.53-3.75.68-4.47,1.01.56,1.9,1.01,2.62,1.34-.01,1.72-.01,3.42-.01,5.08Zm.01-5.86c-1.81-.85-4.69-2.53-7.88-4.52.27-2.04.58-3.93.93-5.66,2.74,1.48,5.46,2.93,7,3.94-.02,2.08-.04,4.17-.05,6.24Zm.05-7.13c-1.65-1.03-4.19-2.38-6.84-3.82.66-3.15,1.44-5.79,2.24-8.01,1.74,1.3,3.41,2.13,4.68,2.6-.02,2.95-.05,6.07-.08,9.23Zm.09-10.1c-1.19-.47-2.76-1.25-4.42-2.48.99-2.61,1.99-4.58,2.85-6.05.54.49,1.08,1.02,1.61,1.61,0,2.11-.02,4.45-.04,6.92Zm-1.18-9.19c.43-.71.77-1.21,1.21-1.87,0,.94,0,1.97,0,3.06-.41-.42-.82-.82-1.22-1.19Zm1.76-34.63c1.58,1.32,3.08,2.64,4.53,3.96-.73,1.39-1.92,3.61-3.03,5.12-.46-3.04-.97-6.04-1.5-9.08Zm1.66,10.1c1.09-1.32,2.3-3.45,3.44-5.61,1.27,1.19,2.5,2.37,3.68,3.55,0,.01-.01.02-.02.03-.02.03-1.24,2.03-2.67,4.38,0,0-.02,0-.02,0l-.04.1c-1.16,1.9-2.45,4.02-3.36,5.51-.29-2.71-.63-5.35-1.01-7.95Zm1.42,12.48c-.08-1.12-.18-2.21-.29-3.3,1.53-2.5,2.7-4.42,3.61-5.9,3.74,1.51,5.76,3.35,6.74,4.52-3.18,1.54-6.54,3.03-10.06,4.68Zm.19,41.38c.01-2.21.02-4.4.04-6.57.74.03,1.72.04,3.56.05.49,6.65.37,5.23.67,6.48-1.48.02-2.9.03-4.27.04Zm4-11.93c2.19-.81,4.7-2.09,6.77-4.31.93,3.68,1.68,6.7,2.23,8.96-1.56.01-3.43.01-5.66.01h-3.04c-.11-1.5-.22-3.11-.3-4.66Zm1.03,11.88c-.04-.19-.08-.36-.12-.52-.25-.9-.16-.87-.23-1.73-.08-1.02-.2-2.52-.33-4.22h2.99c2.32,0,4.24,0,5.84-.01.53,2.17.84,3.49.91,3.81-.06.45.24,1.48.41,1.91.01.2.06.37.12.51-3.33.13-6.55.2-9.59.25Zm10.39-.28c-.21-.45-.12-.31-.2-.71-.17-.39-.38-1.2-.38-1.6l.02-.09c-.26-1.1-.63-2.66-.91-3.81,2.04-.01,5.93-.09,6.69.14.54,1.99,1.03,3.92,1.48,5.76-2.25.13-4.49.23-6.7.31Zm7.44-.36c-.76-3.07-1.63-6.41-2.64-9.86,1.45-.02,2.78-.12,3.99-.27.62,2.82,1.61,5.66,3.41,9.81-1.58.12-3.18.23-4.76.32Zm5.55-.38c-1.83-4.2-2.83-7.04-3.45-9.85,1.98-.3,3.61-.74,4.9-1.2.31,1.73,1.68,6.83,3.49,10.62-1.63.16-3.28.3-4.94.43Zm5.73-.51c-1.95-3.99-3.37-9.51-3.57-10.82.87-.35,1.55-.7,2.04-1.01,1.53,3.93,2.87,7.79,4.15,11.54-.87.1-1.74.2-2.62.29Zm4.1-8.27l-.02.02c-.84-2.36-1.73-4.76-2.7-7.18,4.64-1.26,9.17-2.7,10.7-4.25.43,1.22.88,2.45,1.35,3.71-2.24,2.16-5.4,4.78-9.33,7.7Zm10.34,12.04c-1.19-3.12-4.57-12.65-5.36-14.95,1.61-1.3,3.23-2.69,4.64-4.04,1.49,3.93,3.14,7.97,4.87,11.96-1.54,2.27-2.93,4.62-4.15,7.03Zm4.65-7.76c-.67-1.56-1.33-3.13-1.98-4.7.03-2.62,1.77-6.13,3.63-9.22,2.55,1.28,4.88,2.57,7.01,3.85-3.18,2.98-6.1,6.39-8.66,10.07Zm17.62-3.84c-1.13,2.17-2.24,4.71-3.26,7.66-3.05-4.6-6.16-9.17-7.53-11.03.81-.85,1.64-1.66,2.49-2.45,3.27,2,6.02,3.97,8.3,5.82Zm-3.73-10.56c-1.6,1.15-3.15,2.43-4.66,3.8-2.17-1.32-4.56-2.64-7.18-3.96,1.08-1.75,2.17-3.33,2.96-4.47.4-.57.72-1.03.93-1.36,3.14,2.56,5.75,4.48,7.95,5.99Zm-1.39-7.92c-1.28,1.56-1.75,2.15-2.25,4.37-.68-.52-1.4-1.08-2.15-1.67-.01-2.8-.06-5.56.36-8.33,1.71.79,3.68,1.8,6.06,3.09-.85,1.12-1.5,1.92-2.02,2.54Zm4.82-6.77c-1.05,1.7-1.38,2.23-1.48,2.41-.31.44-.6.84-.87,1.21-2.53-1.37-4.6-2.44-6.39-3.25.27-1.45.71-2.89,1.35-4.32,2.76,1.52,5.2,2.82,7.39,3.95Zm-3.46-12.52c-.97,1.5-2.38,3.72-4.28,7.51-3.55-1.98-7.64-4.38-12.41-7.36,1.73-1.68,3.31-3.29,4.39-4.41,4.47,2.47,8.2,3.17,12.3,4.26Zm-6.66-6.09c-2.71-1.03-5.58-2.58-8.98-5.35,2.42-.46,4.75-.76,7.26-1.13.59,2.35,1.21,4.67,1.72,6.48Zm7.29-9.21c-2.41.67-4.6,1.22-6.41,1.57-.68.12-1.36.22-2.03.32-.76-3.13-1.42-6.21-1.63-8.12,1.98.12,4.39.21,7.72.21h.65c.37,2.16.98,4.17,1.7,6.02Zm2.71-16.63c-.66-.15-1.28-.26-1.79-.26-.61,0-.76-.04-.91-.09-.23-.07-.45-.12-1.11-.12-.06,0-.16-.01-.27-.02h-.05s-.05-.04-.07-.02c-.88-.11-2.75-.49-4.31-.81-3.59-.74-3.23-.65-4.4-.66-.07-1.24-.1-2.58-.2-4.12v-.06c1.13-1.15,2.41-1.33,4.54-1.63,1.06-.15,2.27-.32,3.76-.65.4-.09.8-.18,1.2-.27,1.06,2.86,2.33,5.96,3.61,8.71Z"/>
  </g>
</svg>